<mxfile host="app.diagrams.net" agent="Mozilla/5.0 (Windows NT 10.0; Win64; x64; rv:129.0) Gecko/20100101 Firefox/129.0" version="24.7.17">
  <diagram name="Page-1" id="ea9PzVf_SbILREKgu9ba">
    <mxGraphModel dx="1674" dy="894" grid="1" gridSize="10" guides="1" tooltips="1" connect="1" arrows="1" fold="1" page="1" pageScale="1" pageWidth="850" pageHeight="1100" math="0" shadow="0">
      <root>
        <mxCell id="0" />
        <mxCell id="1" parent="0" />
        <mxCell id="lJdxrtOlQrYvawJA93QM-2" value="&lt;div&gt;HALT&lt;/div&gt;&lt;div&gt;clr=reset&lt;/div&gt;&lt;div&gt;shift=0&lt;/div&gt;&lt;div&gt;add_sub=0&lt;/div&gt;" style="ellipse;whiteSpace=wrap;html=1;aspect=fixed;" vertex="1" parent="1">
          <mxGeometry x="60" y="500" width="80" height="80" as="geometry" />
        </mxCell>
        <mxCell id="lJdxrtOlQrYvawJA93QM-3" value="&lt;div&gt;PREPARE&lt;br&gt;&lt;/div&gt;&lt;div&gt;clr=1&lt;/div&gt;&lt;div&gt;shift=0&lt;/div&gt;&lt;div&gt;add_sub=0&lt;br&gt;&lt;/div&gt;" style="ellipse;whiteSpace=wrap;html=1;aspect=fixed;" vertex="1" parent="1">
          <mxGeometry x="240" y="500" width="80" height="80" as="geometry" />
        </mxCell>
        <mxCell id="lJdxrtOlQrYvawJA93QM-5" value="" style="curved=1;endArrow=classic;html=1;rounded=0;entryX=0.05;entryY=0.725;entryDx=0;entryDy=0;entryPerimeter=0;" edge="1" parent="1" target="lJdxrtOlQrYvawJA93QM-2">
          <mxGeometry width="50" height="50" relative="1" as="geometry">
            <mxPoint x="90" y="500" as="sourcePoint" />
            <mxPoint x="10" y="520" as="targetPoint" />
            <Array as="points">
              <mxPoint x="100" y="470" />
              <mxPoint x="20" y="460" />
              <mxPoint y="550" />
            </Array>
          </mxGeometry>
        </mxCell>
        <mxCell id="lJdxrtOlQrYvawJA93QM-18" value="&lt;div&gt;RUN=0&lt;/div&gt;" style="edgeLabel;html=1;align=center;verticalAlign=middle;resizable=0;points=[];" vertex="1" connectable="0" parent="lJdxrtOlQrYvawJA93QM-5">
          <mxGeometry x="-0.3719" y="5" relative="1" as="geometry">
            <mxPoint as="offset" />
          </mxGeometry>
        </mxCell>
        <mxCell id="lJdxrtOlQrYvawJA93QM-7" value="" style="endArrow=classic;html=1;rounded=0;exitX=1.038;exitY=0.588;exitDx=0;exitDy=0;exitPerimeter=0;entryX=-0.087;entryY=0.575;entryDx=0;entryDy=0;entryPerimeter=0;" edge="1" parent="1" source="lJdxrtOlQrYvawJA93QM-2" target="lJdxrtOlQrYvawJA93QM-3">
          <mxGeometry width="50" height="50" relative="1" as="geometry">
            <mxPoint x="280" y="470" as="sourcePoint" />
            <mxPoint x="330" y="420" as="targetPoint" />
          </mxGeometry>
        </mxCell>
        <mxCell id="lJdxrtOlQrYvawJA93QM-17" value="&lt;div&gt;RUN=1&lt;/div&gt;&lt;div&gt;&lt;br&gt;&lt;/div&gt;" style="edgeLabel;html=1;align=center;verticalAlign=middle;resizable=0;points=[];" vertex="1" connectable="0" parent="lJdxrtOlQrYvawJA93QM-7">
          <mxGeometry x="-0.2454" relative="1" as="geometry">
            <mxPoint as="offset" />
          </mxGeometry>
        </mxCell>
        <mxCell id="lJdxrtOlQrYvawJA93QM-8" value="&lt;div&gt;SHIFT 1&lt;/div&gt;&lt;div&gt;clr=0&lt;/div&gt;&lt;div&gt;shift=1&lt;/div&gt;&lt;div&gt;add_sub=0&lt;br&gt;&lt;/div&gt;" style="ellipse;whiteSpace=wrap;html=1;aspect=fixed;" vertex="1" parent="1">
          <mxGeometry x="370" y="420" width="80" height="80" as="geometry" />
        </mxCell>
        <mxCell id="lJdxrtOlQrYvawJA93QM-9" value="&lt;div&gt;ADD 1&lt;/div&gt;&lt;div&gt;clr=0&lt;/div&gt;&lt;div&gt;shift=0&lt;/div&gt;&lt;div&gt;add_sub=0&lt;/div&gt;" style="ellipse;whiteSpace=wrap;html=1;aspect=fixed;" vertex="1" parent="1">
          <mxGeometry x="370" y="570" width="80" height="80" as="geometry" />
        </mxCell>
        <mxCell id="lJdxrtOlQrYvawJA93QM-11" value="" style="endArrow=classic;html=1;rounded=0;" edge="1" parent="1">
          <mxGeometry width="50" height="50" relative="1" as="geometry">
            <mxPoint x="320" y="530" as="sourcePoint" />
            <mxPoint x="370" y="480" as="targetPoint" />
          </mxGeometry>
        </mxCell>
        <mxCell id="lJdxrtOlQrYvawJA93QM-16" value="M=0" style="edgeLabel;html=1;align=center;verticalAlign=middle;resizable=0;points=[];" vertex="1" connectable="0" parent="lJdxrtOlQrYvawJA93QM-11">
          <mxGeometry x="-0.18" y="2" relative="1" as="geometry">
            <mxPoint as="offset" />
          </mxGeometry>
        </mxCell>
        <mxCell id="lJdxrtOlQrYvawJA93QM-12" value="" style="endArrow=classic;html=1;rounded=0;entryX=0;entryY=0.375;entryDx=0;entryDy=0;entryPerimeter=0;" edge="1" parent="1" target="lJdxrtOlQrYvawJA93QM-9">
          <mxGeometry width="50" height="50" relative="1" as="geometry">
            <mxPoint x="320" y="555" as="sourcePoint" />
            <mxPoint x="370" y="505" as="targetPoint" />
          </mxGeometry>
        </mxCell>
        <mxCell id="lJdxrtOlQrYvawJA93QM-15" value="M=1" style="edgeLabel;html=1;align=center;verticalAlign=middle;resizable=0;points=[];" vertex="1" connectable="0" parent="lJdxrtOlQrYvawJA93QM-12">
          <mxGeometry x="-0.3525" y="-3" relative="1" as="geometry">
            <mxPoint as="offset" />
          </mxGeometry>
        </mxCell>
        <mxCell id="lJdxrtOlQrYvawJA93QM-14" value="" style="endArrow=classic;html=1;rounded=0;entryX=0.5;entryY=1;entryDx=0;entryDy=0;" edge="1" parent="1" target="lJdxrtOlQrYvawJA93QM-8">
          <mxGeometry width="50" height="50" relative="1" as="geometry">
            <mxPoint x="410" y="570" as="sourcePoint" />
            <mxPoint x="460" y="520" as="targetPoint" />
          </mxGeometry>
        </mxCell>
        <mxCell id="lJdxrtOlQrYvawJA93QM-20" value="&lt;div&gt;SHIFT 2&lt;br&gt;&lt;/div&gt;&lt;div&gt;clr=0&lt;/div&gt;&lt;div&gt;shift=1&lt;/div&gt;&lt;div&gt;add_sub=0&lt;br&gt;&lt;/div&gt;" style="ellipse;whiteSpace=wrap;html=1;aspect=fixed;" vertex="1" parent="1">
          <mxGeometry x="520" y="420" width="80" height="80" as="geometry" />
        </mxCell>
        <mxCell id="lJdxrtOlQrYvawJA93QM-21" value="" style="endArrow=classic;html=1;rounded=0;entryX=0;entryY=0.5;entryDx=0;entryDy=0;" edge="1" parent="1" target="lJdxrtOlQrYvawJA93QM-20">
          <mxGeometry width="50" height="50" relative="1" as="geometry">
            <mxPoint x="450" y="460" as="sourcePoint" />
            <mxPoint x="500" y="410" as="targetPoint" />
          </mxGeometry>
        </mxCell>
        <mxCell id="lJdxrtOlQrYvawJA93QM-22" value="M=0" style="edgeLabel;html=1;align=center;verticalAlign=middle;resizable=0;points=[];" vertex="1" connectable="0" parent="lJdxrtOlQrYvawJA93QM-21">
          <mxGeometry x="-0.2396" y="2" relative="1" as="geometry">
            <mxPoint as="offset" />
          </mxGeometry>
        </mxCell>
        <mxCell id="lJdxrtOlQrYvawJA93QM-23" value="&lt;div&gt;ADD 2&lt;br&gt;&lt;/div&gt;&lt;div&gt;clr=0&lt;/div&gt;&lt;div&gt;shift=0&lt;/div&gt;&lt;div&gt;add_sub=0&lt;/div&gt;" style="ellipse;whiteSpace=wrap;html=1;aspect=fixed;" vertex="1" parent="1">
          <mxGeometry x="520" y="570" width="80" height="80" as="geometry" />
        </mxCell>
        <mxCell id="lJdxrtOlQrYvawJA93QM-24" value="" style="endArrow=classic;html=1;rounded=0;entryX=0;entryY=0.5;entryDx=0;entryDy=0;exitX=1.015;exitY=0.614;exitDx=0;exitDy=0;exitPerimeter=0;" edge="1" parent="1" source="lJdxrtOlQrYvawJA93QM-8">
          <mxGeometry width="50" height="50" relative="1" as="geometry">
            <mxPoint x="450" y="609.62" as="sourcePoint" />
            <mxPoint x="520" y="609.62" as="targetPoint" />
          </mxGeometry>
        </mxCell>
        <mxCell id="lJdxrtOlQrYvawJA93QM-26" value="M=1" style="edgeLabel;html=1;align=center;verticalAlign=middle;resizable=0;points=[];" vertex="1" connectable="0" parent="lJdxrtOlQrYvawJA93QM-24">
          <mxGeometry x="-0.3495" y="3" relative="1" as="geometry">
            <mxPoint as="offset" />
          </mxGeometry>
        </mxCell>
        <mxCell id="lJdxrtOlQrYvawJA93QM-27" value="&lt;div&gt;SHIFT 3&lt;br&gt;&lt;/div&gt;&lt;div&gt;clr=0&lt;/div&gt;&lt;div&gt;shift=1&lt;/div&gt;&lt;div&gt;add_sub=0&lt;br&gt;&lt;/div&gt;" style="ellipse;whiteSpace=wrap;html=1;aspect=fixed;" vertex="1" parent="1">
          <mxGeometry x="670" y="420" width="80" height="80" as="geometry" />
        </mxCell>
        <mxCell id="lJdxrtOlQrYvawJA93QM-28" value="" style="endArrow=classic;html=1;rounded=0;entryX=0;entryY=0.5;entryDx=0;entryDy=0;" edge="1" parent="1" target="lJdxrtOlQrYvawJA93QM-27">
          <mxGeometry width="50" height="50" relative="1" as="geometry">
            <mxPoint x="600" y="460" as="sourcePoint" />
            <mxPoint x="650" y="410" as="targetPoint" />
          </mxGeometry>
        </mxCell>
        <mxCell id="lJdxrtOlQrYvawJA93QM-29" value="M=0" style="edgeLabel;html=1;align=center;verticalAlign=middle;resizable=0;points=[];" vertex="1" connectable="0" parent="lJdxrtOlQrYvawJA93QM-28">
          <mxGeometry x="-0.2396" y="2" relative="1" as="geometry">
            <mxPoint as="offset" />
          </mxGeometry>
        </mxCell>
        <mxCell id="lJdxrtOlQrYvawJA93QM-30" value="&lt;div&gt;ADD 3&lt;br&gt;&lt;/div&gt;&lt;div&gt;clr=0&lt;/div&gt;&lt;div&gt;shift=0&lt;/div&gt;&lt;div&gt;add_sub=0&lt;/div&gt;" style="ellipse;whiteSpace=wrap;html=1;aspect=fixed;" vertex="1" parent="1">
          <mxGeometry x="670" y="570" width="80" height="80" as="geometry" />
        </mxCell>
        <mxCell id="lJdxrtOlQrYvawJA93QM-31" value="" style="endArrow=classic;html=1;rounded=0;entryX=0;entryY=0.5;entryDx=0;entryDy=0;exitX=1.015;exitY=0.614;exitDx=0;exitDy=0;exitPerimeter=0;" edge="1" parent="1">
          <mxGeometry width="50" height="50" relative="1" as="geometry">
            <mxPoint x="601" y="469" as="sourcePoint" />
            <mxPoint x="670" y="609.62" as="targetPoint" />
          </mxGeometry>
        </mxCell>
        <mxCell id="lJdxrtOlQrYvawJA93QM-32" value="M=1" style="edgeLabel;html=1;align=center;verticalAlign=middle;resizable=0;points=[];" vertex="1" connectable="0" parent="lJdxrtOlQrYvawJA93QM-31">
          <mxGeometry x="-0.3495" y="3" relative="1" as="geometry">
            <mxPoint as="offset" />
          </mxGeometry>
        </mxCell>
        <mxCell id="lJdxrtOlQrYvawJA93QM-33" value="&lt;div&gt;SHIFT 4&lt;/div&gt;&lt;div&gt;clr=0&lt;/div&gt;&lt;div&gt;shift=1&lt;/div&gt;&lt;div&gt;add_sub=0&lt;br&gt;&lt;/div&gt;" style="ellipse;whiteSpace=wrap;html=1;aspect=fixed;" vertex="1" parent="1">
          <mxGeometry x="820" y="410" width="80" height="80" as="geometry" />
        </mxCell>
        <mxCell id="lJdxrtOlQrYvawJA93QM-34" value="" style="endArrow=classic;html=1;rounded=0;entryX=0;entryY=0.5;entryDx=0;entryDy=0;" edge="1" parent="1" target="lJdxrtOlQrYvawJA93QM-33">
          <mxGeometry width="50" height="50" relative="1" as="geometry">
            <mxPoint x="750" y="450" as="sourcePoint" />
            <mxPoint x="800" y="400" as="targetPoint" />
          </mxGeometry>
        </mxCell>
        <mxCell id="lJdxrtOlQrYvawJA93QM-35" value="M=0" style="edgeLabel;html=1;align=center;verticalAlign=middle;resizable=0;points=[];" vertex="1" connectable="0" parent="lJdxrtOlQrYvawJA93QM-34">
          <mxGeometry x="-0.2396" y="2" relative="1" as="geometry">
            <mxPoint as="offset" />
          </mxGeometry>
        </mxCell>
        <mxCell id="lJdxrtOlQrYvawJA93QM-36" value="&lt;div&gt;ADD 4&lt;br&gt;&lt;/div&gt;&lt;div&gt;clr=0&lt;/div&gt;&lt;div&gt;shift=0&lt;/div&gt;&lt;div&gt;add_sub=0&lt;/div&gt;" style="ellipse;whiteSpace=wrap;html=1;aspect=fixed;" vertex="1" parent="1">
          <mxGeometry x="820" y="560" width="80" height="80" as="geometry" />
        </mxCell>
        <mxCell id="lJdxrtOlQrYvawJA93QM-37" value="" style="endArrow=classic;html=1;rounded=0;entryX=0;entryY=0.5;entryDx=0;entryDy=0;exitX=1.015;exitY=0.614;exitDx=0;exitDy=0;exitPerimeter=0;" edge="1" parent="1">
          <mxGeometry width="50" height="50" relative="1" as="geometry">
            <mxPoint x="751" y="459" as="sourcePoint" />
            <mxPoint x="820" y="599.62" as="targetPoint" />
          </mxGeometry>
        </mxCell>
        <mxCell id="lJdxrtOlQrYvawJA93QM-38" value="M=1" style="edgeLabel;html=1;align=center;verticalAlign=middle;resizable=0;points=[];" vertex="1" connectable="0" parent="lJdxrtOlQrYvawJA93QM-37">
          <mxGeometry x="-0.3495" y="3" relative="1" as="geometry">
            <mxPoint as="offset" />
          </mxGeometry>
        </mxCell>
        <mxCell id="lJdxrtOlQrYvawJA93QM-39" value="&lt;div&gt;SHIFT 5&lt;br&gt;&lt;/div&gt;&lt;div&gt;clr=0&lt;/div&gt;&lt;div&gt;shift=1&lt;/div&gt;&lt;div&gt;add_sub=0&lt;br&gt;&lt;/div&gt;" style="ellipse;whiteSpace=wrap;html=1;aspect=fixed;" vertex="1" parent="1">
          <mxGeometry x="970" y="400" width="80" height="80" as="geometry" />
        </mxCell>
        <mxCell id="lJdxrtOlQrYvawJA93QM-40" value="" style="endArrow=classic;html=1;rounded=0;entryX=0;entryY=0.5;entryDx=0;entryDy=0;" edge="1" target="lJdxrtOlQrYvawJA93QM-39" parent="1">
          <mxGeometry width="50" height="50" relative="1" as="geometry">
            <mxPoint x="900" y="440" as="sourcePoint" />
            <mxPoint x="950" y="390" as="targetPoint" />
          </mxGeometry>
        </mxCell>
        <mxCell id="lJdxrtOlQrYvawJA93QM-41" value="M=0" style="edgeLabel;html=1;align=center;verticalAlign=middle;resizable=0;points=[];" vertex="1" connectable="0" parent="lJdxrtOlQrYvawJA93QM-40">
          <mxGeometry x="-0.2396" y="2" relative="1" as="geometry">
            <mxPoint as="offset" />
          </mxGeometry>
        </mxCell>
        <mxCell id="lJdxrtOlQrYvawJA93QM-42" value="&lt;div&gt;ADD 5&lt;br&gt;&lt;/div&gt;&lt;div&gt;clr=0&lt;/div&gt;&lt;div&gt;shift=0&lt;/div&gt;&lt;div&gt;add_sub=0&lt;/div&gt;" style="ellipse;whiteSpace=wrap;html=1;aspect=fixed;" vertex="1" parent="1">
          <mxGeometry x="970" y="550" width="80" height="80" as="geometry" />
        </mxCell>
        <mxCell id="lJdxrtOlQrYvawJA93QM-43" value="" style="endArrow=classic;html=1;rounded=0;entryX=0;entryY=0.5;entryDx=0;entryDy=0;exitX=1.015;exitY=0.614;exitDx=0;exitDy=0;exitPerimeter=0;" edge="1" parent="1">
          <mxGeometry width="50" height="50" relative="1" as="geometry">
            <mxPoint x="901" y="449" as="sourcePoint" />
            <mxPoint x="970" y="589.62" as="targetPoint" />
          </mxGeometry>
        </mxCell>
        <mxCell id="lJdxrtOlQrYvawJA93QM-44" value="M=1" style="edgeLabel;html=1;align=center;verticalAlign=middle;resizable=0;points=[];" vertex="1" connectable="0" parent="lJdxrtOlQrYvawJA93QM-43">
          <mxGeometry x="-0.3495" y="3" relative="1" as="geometry">
            <mxPoint as="offset" />
          </mxGeometry>
        </mxCell>
        <mxCell id="lJdxrtOlQrYvawJA93QM-51" value="&lt;div&gt;SHIFT 6&lt;br&gt;&lt;/div&gt;&lt;div&gt;clr=0&lt;/div&gt;&lt;div&gt;shift=1&lt;/div&gt;&lt;div&gt;add_sub=0&lt;br&gt;&lt;/div&gt;" style="ellipse;whiteSpace=wrap;html=1;aspect=fixed;" vertex="1" parent="1">
          <mxGeometry x="1120" y="400" width="80" height="80" as="geometry" />
        </mxCell>
        <mxCell id="lJdxrtOlQrYvawJA93QM-52" value="" style="endArrow=classic;html=1;rounded=0;entryX=0;entryY=0.5;entryDx=0;entryDy=0;" edge="1" parent="1" target="lJdxrtOlQrYvawJA93QM-51">
          <mxGeometry width="50" height="50" relative="1" as="geometry">
            <mxPoint x="1050" y="440" as="sourcePoint" />
            <mxPoint x="1100" y="390" as="targetPoint" />
          </mxGeometry>
        </mxCell>
        <mxCell id="lJdxrtOlQrYvawJA93QM-53" value="M=0" style="edgeLabel;html=1;align=center;verticalAlign=middle;resizable=0;points=[];" vertex="1" connectable="0" parent="lJdxrtOlQrYvawJA93QM-52">
          <mxGeometry x="-0.2396" y="2" relative="1" as="geometry">
            <mxPoint as="offset" />
          </mxGeometry>
        </mxCell>
        <mxCell id="lJdxrtOlQrYvawJA93QM-54" value="&lt;div&gt;ADD 6&lt;br&gt;&lt;/div&gt;&lt;div&gt;clr=0&lt;/div&gt;&lt;div&gt;shift=0&lt;/div&gt;&lt;div&gt;add_sub=0&lt;/div&gt;" style="ellipse;whiteSpace=wrap;html=1;aspect=fixed;" vertex="1" parent="1">
          <mxGeometry x="1120" y="550" width="80" height="80" as="geometry" />
        </mxCell>
        <mxCell id="lJdxrtOlQrYvawJA93QM-55" value="" style="endArrow=classic;html=1;rounded=0;entryX=0;entryY=0.5;entryDx=0;entryDy=0;exitX=1.015;exitY=0.614;exitDx=0;exitDy=0;exitPerimeter=0;" edge="1" parent="1">
          <mxGeometry width="50" height="50" relative="1" as="geometry">
            <mxPoint x="1051" y="449" as="sourcePoint" />
            <mxPoint x="1120" y="589.62" as="targetPoint" />
          </mxGeometry>
        </mxCell>
        <mxCell id="lJdxrtOlQrYvawJA93QM-56" value="M=1" style="edgeLabel;html=1;align=center;verticalAlign=middle;resizable=0;points=[];" vertex="1" connectable="0" parent="lJdxrtOlQrYvawJA93QM-55">
          <mxGeometry x="-0.3495" y="3" relative="1" as="geometry">
            <mxPoint as="offset" />
          </mxGeometry>
        </mxCell>
        <mxCell id="lJdxrtOlQrYvawJA93QM-57" value="&lt;div&gt;SHIFT 7&lt;br&gt;&lt;/div&gt;&lt;div&gt;clr=0&lt;/div&gt;&lt;div&gt;shift=1&lt;/div&gt;&lt;div&gt;add_sub=0&lt;br&gt;&lt;/div&gt;" style="ellipse;whiteSpace=wrap;html=1;aspect=fixed;" vertex="1" parent="1">
          <mxGeometry x="1270" y="390" width="80" height="80" as="geometry" />
        </mxCell>
        <mxCell id="lJdxrtOlQrYvawJA93QM-58" value="" style="endArrow=classic;html=1;rounded=0;entryX=0;entryY=0.5;entryDx=0;entryDy=0;" edge="1" parent="1" target="lJdxrtOlQrYvawJA93QM-57">
          <mxGeometry width="50" height="50" relative="1" as="geometry">
            <mxPoint x="1200" y="430" as="sourcePoint" />
            <mxPoint x="1250" y="380" as="targetPoint" />
          </mxGeometry>
        </mxCell>
        <mxCell id="lJdxrtOlQrYvawJA93QM-59" value="M=0" style="edgeLabel;html=1;align=center;verticalAlign=middle;resizable=0;points=[];" vertex="1" connectable="0" parent="lJdxrtOlQrYvawJA93QM-58">
          <mxGeometry x="-0.2396" y="2" relative="1" as="geometry">
            <mxPoint as="offset" />
          </mxGeometry>
        </mxCell>
        <mxCell id="lJdxrtOlQrYvawJA93QM-60" value="&lt;div&gt;ADD 7&lt;br&gt;&lt;/div&gt;&lt;div&gt;clr=0&lt;/div&gt;&lt;div&gt;shift=0&lt;/div&gt;&lt;div&gt;add_sub=0&lt;/div&gt;" style="ellipse;whiteSpace=wrap;html=1;aspect=fixed;" vertex="1" parent="1">
          <mxGeometry x="1270" y="540" width="80" height="80" as="geometry" />
        </mxCell>
        <mxCell id="lJdxrtOlQrYvawJA93QM-61" value="" style="endArrow=classic;html=1;rounded=0;entryX=0;entryY=0.5;entryDx=0;entryDy=0;exitX=1.015;exitY=0.614;exitDx=0;exitDy=0;exitPerimeter=0;" edge="1" parent="1">
          <mxGeometry width="50" height="50" relative="1" as="geometry">
            <mxPoint x="1201" y="439" as="sourcePoint" />
            <mxPoint x="1270" y="579.62" as="targetPoint" />
          </mxGeometry>
        </mxCell>
        <mxCell id="lJdxrtOlQrYvawJA93QM-62" value="M=1" style="edgeLabel;html=1;align=center;verticalAlign=middle;resizable=0;points=[];" vertex="1" connectable="0" parent="lJdxrtOlQrYvawJA93QM-61">
          <mxGeometry x="-0.3495" y="3" relative="1" as="geometry">
            <mxPoint as="offset" />
          </mxGeometry>
        </mxCell>
        <mxCell id="lJdxrtOlQrYvawJA93QM-63" value="" style="endArrow=classic;html=1;rounded=0;entryX=0.5;entryY=1;entryDx=0;entryDy=0;" edge="1" parent="1">
          <mxGeometry width="50" height="50" relative="1" as="geometry">
            <mxPoint x="559.62" y="570" as="sourcePoint" />
            <mxPoint x="559.62" y="500" as="targetPoint" />
          </mxGeometry>
        </mxCell>
        <mxCell id="lJdxrtOlQrYvawJA93QM-64" value="" style="endArrow=classic;html=1;rounded=0;entryX=0.5;entryY=1;entryDx=0;entryDy=0;" edge="1" parent="1">
          <mxGeometry width="50" height="50" relative="1" as="geometry">
            <mxPoint x="709.62" y="570" as="sourcePoint" />
            <mxPoint x="709.62" y="500" as="targetPoint" />
          </mxGeometry>
        </mxCell>
        <mxCell id="lJdxrtOlQrYvawJA93QM-65" value="" style="endArrow=classic;html=1;rounded=0;entryX=0.5;entryY=1;entryDx=0;entryDy=0;" edge="1" parent="1">
          <mxGeometry width="50" height="50" relative="1" as="geometry">
            <mxPoint x="859.62" y="560" as="sourcePoint" />
            <mxPoint x="859.62" y="490" as="targetPoint" />
          </mxGeometry>
        </mxCell>
        <mxCell id="lJdxrtOlQrYvawJA93QM-66" value="" style="endArrow=classic;html=1;rounded=0;entryX=0.5;entryY=1;entryDx=0;entryDy=0;" edge="1" parent="1">
          <mxGeometry width="50" height="50" relative="1" as="geometry">
            <mxPoint x="1009.62" y="550" as="sourcePoint" />
            <mxPoint x="1009.62" y="480" as="targetPoint" />
          </mxGeometry>
        </mxCell>
        <mxCell id="lJdxrtOlQrYvawJA93QM-67" value="" style="endArrow=classic;html=1;rounded=0;entryX=0.5;entryY=1;entryDx=0;entryDy=0;" edge="1" parent="1">
          <mxGeometry width="50" height="50" relative="1" as="geometry">
            <mxPoint x="1159.62" y="550" as="sourcePoint" />
            <mxPoint x="1159.62" y="480" as="targetPoint" />
          </mxGeometry>
        </mxCell>
        <mxCell id="lJdxrtOlQrYvawJA93QM-68" value="" style="endArrow=classic;html=1;rounded=0;entryX=0.5;entryY=1;entryDx=0;entryDy=0;" edge="1" parent="1">
          <mxGeometry width="50" height="50" relative="1" as="geometry">
            <mxPoint x="1309.62" y="540" as="sourcePoint" />
            <mxPoint x="1309.62" y="470" as="targetPoint" />
          </mxGeometry>
        </mxCell>
        <mxCell id="lJdxrtOlQrYvawJA93QM-69" value="&lt;div&gt;SHIFT 8&lt;br&gt;&lt;/div&gt;&lt;div&gt;clr=0&lt;/div&gt;&lt;div&gt;shift=1&lt;/div&gt;&lt;div&gt;add_sub=0&lt;br&gt;&lt;/div&gt;" style="ellipse;whiteSpace=wrap;html=1;aspect=fixed;" vertex="1" parent="1">
          <mxGeometry x="1420" y="390" width="80" height="80" as="geometry" />
        </mxCell>
        <mxCell id="lJdxrtOlQrYvawJA93QM-70" value="" style="endArrow=classic;html=1;rounded=0;entryX=0;entryY=0.5;entryDx=0;entryDy=0;" edge="1" parent="1" target="lJdxrtOlQrYvawJA93QM-69">
          <mxGeometry width="50" height="50" relative="1" as="geometry">
            <mxPoint x="1350" y="430" as="sourcePoint" />
            <mxPoint x="1400" y="380" as="targetPoint" />
          </mxGeometry>
        </mxCell>
        <mxCell id="lJdxrtOlQrYvawJA93QM-71" value="M=0" style="edgeLabel;html=1;align=center;verticalAlign=middle;resizable=0;points=[];" vertex="1" connectable="0" parent="lJdxrtOlQrYvawJA93QM-70">
          <mxGeometry x="-0.2396" y="2" relative="1" as="geometry">
            <mxPoint as="offset" />
          </mxGeometry>
        </mxCell>
        <mxCell id="lJdxrtOlQrYvawJA93QM-72" value="&lt;div&gt;SUB&lt;br&gt;&lt;/div&gt;&lt;div&gt;clr=0&lt;/div&gt;&lt;div&gt;shift=0&lt;/div&gt;&lt;div&gt;add_sub=1&lt;/div&gt;" style="ellipse;whiteSpace=wrap;html=1;aspect=fixed;" vertex="1" parent="1">
          <mxGeometry x="1420" y="540" width="80" height="80" as="geometry" />
        </mxCell>
        <mxCell id="lJdxrtOlQrYvawJA93QM-73" value="" style="endArrow=classic;html=1;rounded=0;entryX=0;entryY=0.5;entryDx=0;entryDy=0;exitX=1.015;exitY=0.614;exitDx=0;exitDy=0;exitPerimeter=0;" edge="1" parent="1">
          <mxGeometry width="50" height="50" relative="1" as="geometry">
            <mxPoint x="1351" y="439" as="sourcePoint" />
            <mxPoint x="1420" y="579.62" as="targetPoint" />
          </mxGeometry>
        </mxCell>
        <mxCell id="lJdxrtOlQrYvawJA93QM-74" value="M=1" style="edgeLabel;html=1;align=center;verticalAlign=middle;resizable=0;points=[];" vertex="1" connectable="0" parent="lJdxrtOlQrYvawJA93QM-73">
          <mxGeometry x="-0.3495" y="3" relative="1" as="geometry">
            <mxPoint as="offset" />
          </mxGeometry>
        </mxCell>
        <mxCell id="lJdxrtOlQrYvawJA93QM-75" value="" style="endArrow=classic;html=1;rounded=0;entryX=0.5;entryY=1;entryDx=0;entryDy=0;" edge="1" parent="1">
          <mxGeometry width="50" height="50" relative="1" as="geometry">
            <mxPoint x="1459.62" y="540" as="sourcePoint" />
            <mxPoint x="1459.62" y="470" as="targetPoint" />
          </mxGeometry>
        </mxCell>
        <mxCell id="lJdxrtOlQrYvawJA93QM-78" value="" style="curved=1;endArrow=classic;html=1;rounded=0;exitX=0.953;exitY=0.822;exitDx=0;exitDy=0;exitPerimeter=0;" edge="1" parent="1" source="lJdxrtOlQrYvawJA93QM-69" target="lJdxrtOlQrYvawJA93QM-2">
          <mxGeometry width="50" height="50" relative="1" as="geometry">
            <mxPoint x="1570" y="570" as="sourcePoint" />
            <mxPoint x="210" y="710" as="targetPoint" />
            <Array as="points">
              <mxPoint x="1560" y="640" />
              <mxPoint x="1490" y="680" />
              <mxPoint x="800" y="740" />
              <mxPoint x="160" y="710" />
            </Array>
          </mxGeometry>
        </mxCell>
      </root>
    </mxGraphModel>
  </diagram>
</mxfile>
